{"title":"The Bunker (2014) RC-DVD 720p NL Subs x264-NLU002","uid":9797175,"size":3517980179,"categoryP":"video","categoryS":"hd___movies","magnet":"?xt=urn:btih:a252bed9c35cb35c514d4743ca4fe421ab87519b&amp;dn=The+Bunker+%282014%29+RC-DVD+720p+NL+Subs+x264-NLU002&amp;tr=udp%3A%2F%2Ftracker.openbittorrent.com%3A80&amp;tr=udp%3A%2F%2Fopen.demonii.com%3A1337&amp;tr=udp%3A%2F%2Ftracker.coppersurfer.tk%3A6969&amp;tr=udp%3A%2F%2Fexodus.desync.com%3A6969","seeders":0,"leechers":1,"uploader":"NLUPPER002","files":-1,"time":1395334140,"description":"The Bunker (2014) RC-DVD 720p NL Subs x264-NLU002\n.\n[URL=https://imageshack.com/i/nfk7mzj][IMG]http://imagizer.imageshack.us/v2/640x480q90/843/k7mz.jpg[/IMG][/URL]\n.\n 90 min  -  Action  -  8 April 2014 (USA) \n. &lt;a href=&quot;\nhttp://www.imdb.com/title/tt1686897/&quot; rel=&quot;nofollow&quot; target=&quot;_NEW&quot;&gt;\nhttp://www.imdb.com/title/tt1686897/&lt;/a&gt;\n.\nPLOT\n.\n &quot;The Bunker,&quot; is a fictional war torn valor story of heroism, set in the uncharted lands of &quot;The Ho Bo Woods&quot; in southern Vietnam 1965. Following a bogus ghost hunt for a missing Special ...\n.\nSource: Retail DVD5\nFormat: 720p MKV\nVideo: 1280x720\nAudio: English DD5.1\nRetail Subtitles: Dutch\n.\nEnjoy x264 by NLU002\n.\nFormat                                   : AVC\nFormat/Info                              : Advanced Video Codec\nFormat profile                           : &lt;a class=&quot;__cf_email__&quot; href=&quot;/cdn-cgi/l/email-protection&quot; data-cfemail=&quot;6129080609212d554f50&quot;&gt;[email&amp;#160;protected]&lt;/a&gt;&lt;script cf-hash='f9e31' type=&quot;text/javascript&quot;&gt;\n/* &lt;![CDATA[ */!function(){try{var t=&quot;currentScript&quot;in document?document.currentScript:function(){for(var t=document.getElementsByTagName(&quot;script&quot;),e=t.length;e--;)if(t[e].getAttribute(&quot;cf-hash&quot;))return t[e]}();if(t&amp;&amp;t.previousSibling){var e,r,n,i,c=t.previousSibling,a=c.getAttribute(&quot;data-cfemail&quot;);if(a){for(e=&quot;&quot;,r=parseInt(a.substr(0,2),16),n=2;a.length-n;n+=2)i=parseInt(a.substr(n,2),16)^r,e+=String.fromCharCode(i);e=document.createTextNode(e),c.parentNode.replaceChild(e,c)}}}catch(u){}}();/* ]]&gt; */&lt;/script&gt;\nFormat settings, CABAC                   : Yes\nFormat settings, ReFrames                : 8 frames\nCodec ID                                 : V_MPEG4/ISO/AVC\nDuration                                 : 1h 27mn\nBit rate mode                            : Variable\nBit rate                                 : 5 000 Kbps\nMaximum bit rate                         : 62.5 Mbps\nWidth                                    : 1 280 pixels\nHeight                                   : 720 pixels\nDisplay aspect ratio                     : 16:9\nFrame rate mode                          : Constant\nFrame rate                               : 25.000 fps\nColor space                              : YUV\nChroma subsampling                       : 4:2:0\nBit depth                                : 8 bits\nScan type                                : Progressive\nBits/(Pixel*Frame)                       : 0.217\nStream size                              : 2.98 GiB (91%)\nWriting library                          : x264 core 135 r2345 f0c1c53\nEncoding settings                        : cabac=1 / ref=8 / deblock=1:-1:-1 / analyse=0x3:0x133 / me=umh / subme=9 / psy=1 / psy_rd=1.00:0.15 / mixed_ref=1 / me_range=16 / chroma_me=1 / trellis=2 / 8x8dct=1 / cqm=0 / deadzone=21,11 / fast_pskip=1 / chroma_qp_offset=-3 / threads=12 / lookahead_threads=1 / sliced_threads=0 / nr=0 / decimate=1 / interlaced=0 / bluray_compat=0 / constrained_intra=0 / bframes=3 / b_pyramid=0 / b_adapt=2 / b_bias=0 / direct=3 / weightb=1 / open_gop=0 / weightp=2 / keyint=250 / keyint_min=25 / scenecut=40 / intra_refresh=0 / rc_lookahead=60 / rc=2pass / mbtree=1 / bitrate=5000 / ratetol=1.0 / qcomp=0.60 / qpmin=0 / qpmax=69 / qpstep=4 / cplxblur=20.0 / qblur=0.5 / vbv_maxrate=62500 / vbv_bufsize=62500 / nal_hrd=vbr / ip_ratio=1.40 / aq=1:1.00\nDefault                                  : Yes\nForced                                   : No\n\nAudio\nID                                       : 2\nFormat                                   : AC-3\nFormat/Info                              : Audio Coding 3\nMode extension                           : CM (complete main)\nFormat settings, Endianness              : Big\nCodec ID                                 : A_AC3\nDuration                                 : 1h 27mn\nBit rate mode                            : Constant\nBit rate                                 : 384 Kbps\nChannel(s)                               : 6 channels\nChannel positions                        : Front: L C R, Side: L R, LFE\nSampling rate                            : 48.0 KHz\nBit depth                                : 16 bits\nCompression mode                         : Lossy\nStream size                              : 239 MiB (7%)\nLanguage                                 : English\nDefault                                  : Yes\nForced                                   : No\n\nText\nID                                       : 3\nFormat                                   : VobSub\nMuxing mode                              : zlib\nCodec ID                                 : S_VOBSUB\nCodec ID/Info                            : The same subtitle format used on DVDs\nLanguage                                 : Dutch\nDefault                                  : Yes\nForced                                   : No","torrent":{"xt":"urn:btih:a252bed9c35cb35c514d4743ca4fe421ab87519b","amp;dn":"The+Bunker+%282014%29+RC-DVD+720p+NL+Subs+x264-NLU002","amp;tr":["udp%3A%2F%2Ftracker.openbittorrent.com%3A80","udp%3A%2F%2Fopen.demonii.com%3A1337","udp%3A%2F%2Ftracker.coppersurfer.tk%3A6969","udp%3A%2F%2Fexodus.desync.com%3A6969"],"infoHash":"a252bed9c35cb35c514d4743ca4fe421ab87519b","infoHashBuffer":{"type":"Buffer","data":[162,82,190,217,195,92,179,92,81,77,71,67,202,79,228,33,171,135,81,155]},"announce":[],"urlList":[]}}